<svg width="540" height="590" viewBox="0 0 540 590" fill="none" xmlns="http://www.w3.org/2000/svg">
<path d="M184.499 366.059C202.603 363.244 215.689 371.435 231.107 373.676C226.976 355.255 223.827 336.429 219.278 317.942C209.756 279.243 139.516 301.347 112.143 298.86C62.3143 294.333 9.98982 260.074 35.1505 203.104C71.0176 121.893 142.528 219.752 190.909 231.729C264.553 249.959 218.405 137.515 221.801 111.098C226.034 78.1805 262.223 60.6672 291.634 72.5229C324.685 85.8465 327.603 121.675 338.62 150.967C360.812 209.97 479.013 214.746 456.803 142.448C445.503 105.665 415.493 77.516 423.524 36.1973C427.597 15.2394 445.534 -3.84979 468.669 1.37099C580.082 26.5132 531.039 173.054 513.883 243.656C497.808 309.805 542.887 358.289 531.204 423.716C511.003 536.847 381.157 575.784 280.79 587.693C246.682 591.74 212.031 588.464 178.225 583.058C135.041 576.153 83.1351 569.8 42.1064 554.57C9.48036 542.46 -3.29375 520.032 1.4619 485.872C9.52263 427.971 64.1408 429.378 110.575 454.181C137.249 468.429 158.778 490.849 185.385 505.568C228.725 529.545 276.414 528.233 324.163 522.129C379.149 515.101 470.601 480.178 467.851 410.086C465.83 358.58 433.989 318.066 391.813 291.84C372.702 279.956 316.431 259.877 305.886 293.748C303.662 300.894 293.355 383.995 299.067 388.277C314.504 399.847 368.576 394.328 345.303 436.12C325.882 470.997 255.942 483.212 249.693 433.258C247.517 415.86 215.739 440.765 206.321 444.026C189.497 449.85 167.584 435.726 156.948 423.989C130.841 395.181 152.477 371.037 184.499 366.059Z" fill="#FFFDFD"/>
</svg>
